HIERARCHY
ROOT hip
{
  OFFSET 0 90.174 2.4664
  CHANNELS 6 Xposition Yposition Zposition Zrotation Xrotation Yrotation
  JOINT abdomen
  {
    OFFSET 0 -1.186 -1.5018
    CHANNELS 6 Xposition Yposition Zposition Zrotation Xrotation Yrotation
    JOINT abdomen2
    {
      OFFSET 0 9.964 0.2134
      CHANNELS 6 Xposition Yposition Zposition Zrotation Xrotation Yrotation
      JOINT chest
      {
        OFFSET 0 13.134 -3.2573
        CHANNELS 6 Xposition Yposition Zposition Zrotation Xrotation Yrotation
        JOINT neck
        {
          OFFSET 0 20.686 -1.6905
          CHANNELS 6 Xposition Yposition Zposition Zrotation Xrotation Yrotation
          JOINT head
          {
            OFFSET 0 7.238 -0.1237
            CHANNELS 6 Xposition Yposition Zposition Zrotation Xrotation Yrotation
            End Site
            {
              OFFSET 0 0 0
            }
          }
        }
        JOINT lCollar
        {
          OFFSET 1.7069 20.075 5.0056
          CHANNELS 6 Xposition Yposition Zposition Zrotation Xrotation Yrotation
          JOINT lShldr
          {
            OFFSET 13.6458 -0.047 -4.849
            CHANNELS 6 Xposition Yposition Zposition Zrotation Xrotation Yrotation
            JOINT lForeArm
            {
              OFFSET 28.3255 -0.9759 2.2888
              CHANNELS 6 Xposition Yposition Zposition Zrotation Xrotation Yrotation
              JOINT lHand
              {
                OFFSET 22.1583 -0.53 10.8316
                CHANNELS 6 Xposition Yposition Zposition Zrotation Xrotation Yrotation
                JOINT lThumb1
                {
                  OFFSET 0.786 0.112 2.5817
                  CHANNELS 6 Xposition Yposition Zposition Zrotation Xrotation Yrotation
                  JOINT lThumb2
                  {
                    OFFSET 0.3601 -0.878 4.2331
                    CHANNELS 6 Xposition Yposition Zposition Zrotation Xrotation Yrotation
                    JOINT lThumb2_End
                    {
                      OFFSET 1.8127 -1.216 2.2227
                      CHANNELS 6 Xposition Yposition Zposition Zrotation Xrotation Yrotation
                      End Site
                      {
                        OFFSET 0.0181 -0.0122 0.0222
                      }
                    }
                  }
                }
                JOINT lCarpal1
                {
                  OFFSET 0.9571 1.114 1.7695
                  CHANNELS 6 Xposition Yposition Zposition Zrotation Xrotation Yrotation
                  JOINT lIndex1
                  {
                    OFFSET 4.1246 0.487 4.1451
                    CHANNELS 6 Xposition Yposition Zposition Zrotation Xrotation Yrotation
                    JOINT lIndex2
                    {
                      OFFSET 3.4052 -1.454 2.7682
                      CHANNELS 6 Xposition Yposition Zposition Zrotation Xrotation Yrotation
                      JOINT lIndex2_End
                      {
                        OFFSET 1.4531 -1.795 1.2713
                        CHANNELS 6 Xposition Yposition Zposition Zrotation Xrotation Yrotation
                        End Site
                        {
                          OFFSET 0.0145 -0.0179 0.0127
                        }
                      }
                    }
                  }
                  JOINT lMid1
                  {
                    OFFSET 5.6954 0.21 2.1184
                    CHANNELS 6 Xposition Yposition Zposition Zrotation Xrotation Yrotation
                    JOINT lMid2
                    {
                      OFFSET 3.9766 -1.54 2.3863
                      CHANNELS 6 Xposition Yposition Zposition Zrotation Xrotation Yrotation
                      JOINT lMid2_End
                      {
                        OFFSET 1.4042 -1.926 1.125
                        CHANNELS 6 Xposition Yposition Zposition Zrotation Xrotation Yrotation
                        End Site
                        {
                          OFFSET 0.014 -0.0193 0.0113
                        }
                      }
                    }
                  }
                }
                JOINT lCarpal2
                {
                  OFFSET 2.0956 0.66 -0.3894
                  CHANNELS 6 Xposition Yposition Zposition Zrotation Xrotation Yrotation
                  JOINT lRing1
                  {
                    OFFSET 5.0395 -0.09 2.4971
                    CHANNELS 6 Xposition Yposition Zposition Zrotation Xrotation Yrotation
                    JOINT lRing2
                    {
                      OFFSET 3.7921 -1.552 1.4806
                      CHANNELS 6 Xposition Yposition Zposition Zrotation Xrotation Yrotation
                      JOINT lRing2_End
                      {
                        OFFSET 1.4655 -1.808 0.9609
                        CHANNELS 6 Xposition Yposition Zposition Zrotation Xrotation Yrotation
                        End Site
                        {
                          OFFSET 0.0147 -0.0181 0.0096
                        }
                      }
                    }
                  }
                  JOINT lPinky1
                  {
                    OFFSET 4.9141 -1.269 0.3591
                    CHANNELS 6 Xposition Yposition Zposition Zrotation Xrotation Yrotation
                    JOINT lPinky2
                    {
                      OFFSET 3.1477 -1.685 0.8462
                      CHANNELS 6 Xposition Yposition Zposition Zrotation Xrotation Yrotation
                      JOINT lPinky2_End
                      {
                        OFFSET 0.8055 -1.585 0.7955
                        CHANNELS 6 Xposition Yposition Zposition Zrotation Xrotation Yrotation
                        End Site
                        {
                          OFFSET 0.0081 -0.0158 0.008
                        }
                      }
                    }
                  }
                }
              }
            }
          }
        }
        JOINT rCollar
        {
          OFFSET -1.7069 20.075 5.0056
          CHANNELS 6 Xposition Yposition Zposition Zrotation Xrotation Yrotation
          JOINT rShldr
          {
            OFFSET -13.6458 -0.047 -4.849
            CHANNELS 6 Xposition Yposition Zposition Zrotation Xrotation Yrotation
            JOINT rForeArm
            {
              OFFSET -28.3255 -0.9759 2.2888
              CHANNELS 6 Xposition Yposition Zposition Zrotation Xrotation Yrotation
              JOINT rHand
              {
                OFFSET -22.1583 -0.53 10.8316
                CHANNELS 6 Xposition Yposition Zposition Zrotation Xrotation Yrotation
                JOINT rThumb1
                {
                  OFFSET -0.786 0.112 2.5817
                  CHANNELS 6 Xposition Yposition Zposition Zrotation Xrotation Yrotation
                  JOINT rThumb2
                  {
                    OFFSET -0.3601 -0.878 4.2331
                    CHANNELS 6 Xposition Yposition Zposition Zrotation Xrotation Yrotation
                    JOINT rThumb2_End
                    {
                      OFFSET -1.8127 -1.216 2.2227
                      CHANNELS 6 Xposition Yposition Zposition Zrotation Xrotation Yrotation
                      End Site
                      {
                        OFFSET -0.0181 -0.0122 0.0222
                      }
                    }
                  }
                }
                JOINT rCarpal1
                {
                  OFFSET -0.9571 1.114 1.7695
                  CHANNELS 6 Xposition Yposition Zposition Zrotation Xrotation Yrotation
                  JOINT rIndex1
                  {
                    OFFSET -4.1246 0.487 4.1451
                    CHANNELS 6 Xposition Yposition Zposition Zrotation Xrotation Yrotation
                    JOINT rIndex2
                    {
                      OFFSET -3.4052 -1.454 2.7682
                      CHANNELS 6 Xposition Yposition Zposition Zrotation Xrotation Yrotation
                      JOINT rIndex2_End
                      {
                        OFFSET -1.4531 -1.795 1.2713
                        CHANNELS 6 Xposition Yposition Zposition Zrotation Xrotation Yrotation
                        End Site
                        {
                          OFFSET -0.0145 -0.018 0.0127
                        }
                      }
                    }
                  }
                  JOINT rMid1
                  {
                    OFFSET -5.6954 0.21 2.1184
                    CHANNELS 6 Xposition Yposition Zposition Zrotation Xrotation Yrotation
                    JOINT rMid2
                    {
                      OFFSET -3.9766 -1.54 2.3863
                      CHANNELS 6 Xposition Yposition Zposition Zrotation Xrotation Yrotation
                      JOINT rMid2_End
                      {
                        OFFSET -1.4042 -1.926 1.125
                        CHANNELS 6 Xposition Yposition Zposition Zrotation Xrotation Yrotation
                        End Site
                        {
                          OFFSET -0.014 -0.0193 0.0113
                        }
                      }
                    }
                  }
                }
                JOINT rCarpal2
                {
                  OFFSET -2.0956 0.66 -0.3894
                  CHANNELS 6 Xposition Yposition Zposition Zrotation Xrotation Yrotation
                  JOINT rRing1
                  {
                    OFFSET -5.0395 -0.09 2.4971
                    CHANNELS 6 Xposition Yposition Zposition Zrotation Xrotation Yrotation
                    JOINT rRing2
                    {
                      OFFSET -3.7921 -1.552 1.4806
                      CHANNELS 6 Xposition Yposition Zposition Zrotation Xrotation Yrotation
                      JOINT rRing2_End
                      {
                        OFFSET -1.4655 -1.808 0.9609
                        CHANNELS 6 Xposition Yposition Zposition Zrotation Xrotation Yrotation
                        End Site
                        {
                          OFFSET -0.0147 -0.0181 0.0096
                        }
                      }
                    }
                  }
                  JOINT rPinky1
                  {
                    OFFSET -4.9141 -1.269 0.3592
                    CHANNELS 6 Xposition Yposition Zposition Zrotation Xrotation Yrotation
                    JOINT rPinky2
                    {
                      OFFSET -3.1477 -1.685 0.8462
                      CHANNELS 6 Xposition Yposition Zposition Zrotation Xrotation Yrotation
                      JOINT rPinky2_End
                      {
                        OFFSET -0.8055 -1.585 0.7955
                        CHANNELS 6 Xposition Yposition Zposition Zrotation Xrotation Yrotation
                        End Site
                        {
                          OFFSET -0.0081 -0.0158 0.008
                        }
                      }
                    }
                  }
                }
              }
            }
          }
        }
      }
    }
  }
  JOINT lThigh
  {
    OFFSET 8.367 -8.2066 0.5982
    CHANNELS 6 Xposition Yposition Zposition Zrotation Xrotation Yrotation
    JOINT lShin
    {
      OFFSET 2.1923 -43.463 -0.4932
      CHANNELS 6 Xposition Yposition Zposition Zrotation Xrotation Yrotation
      JOINT lFoot
      {
        OFFSET 0.7333 -45.8593 -2.6451
        CHANNELS 6 Xposition Yposition Zposition Zrotation Xrotation Yrotation
        End Site
        {
          OFFSET 2.6618 -4.2699 12.3931
        }
      }
    }
  }
  JOINT rThigh
  {
    OFFSET -8.367 -8.2066 0.5982
    CHANNELS 6 Xposition Yposition Zposition Zrotation Xrotation Yrotation
    JOINT rShin
    {
      OFFSET -2.1923 -43.463 -0.4931
      CHANNELS 6 Xposition Yposition Zposition Zrotation Xrotation Yrotation
      JOINT rFoot
      {
        OFFSET -0.7333 -45.8593 -2.6451
        CHANNELS 6 Xposition Yposition Zposition Zrotation Xrotation Yrotation
        End Site
        {
          OFFSET -2.6618 -4.2699 12.3931
        }
      }
    }
  }
}
MOTION
Frames:	4
Frame Time:	0.0333333
0 90.174 2.4664 0 0 -0 0 -1.186 -1.5018 0 0 -0 0 9.964 0.2134 0 0 -0 0 13.134 -3.2573 0 0 -0 0 20.686 -1.6905 0 0 -0 0 7.238 -0.1237 0 0 -0 1.7069 20.075 5.0056 0 0 -0 13.6458 -0.047 -4.849 1.66051 0.0835086 5.75766 28.3255 -0.9759 2.2888 -0.0175111 0.895433 15.7816 22.1583 -0.53 10.8316 7.95139e-016 -1.98785e-016 -0 0.786 0.112 2.5817 5.46658e-016 -3.97569e-016 -0 0.3601 -0.878 4.2331 5.96354e-016 0 -0 1.8127 -1.216 2.2227 3.97569e-016 1.98785e-016 9.54166e-015 0.9571 1.114 1.7695 1.49089e-016 -3.97569e-016 -0 4.1246 0.487 4.1451 6.4605e-016 0 3.18055e-015 3.4052 -1.454 2.7682 5.96354e-016 0 3.18055e-015 1.4531 -1.795 1.2713 8.94531e-016 -1.98785e-016 6.36111e-015 5.6954 0.21 2.1184 6.4605e-016 0 3.18055e-015 3.9766 -1.54 2.3863 5.96354e-016 0 3.18055e-015 1.4042 -1.926 1.125 8.94531e-016 -1.98785e-016 6.36111e-015 2.0956 0.66 -0.3894 1.49089e-016 -3.97569e-016 -0 5.0395 -0.09 2.4971 6.4605e-016 0 3.18055e-015 3.7921 -1.552 1.4806 5.96354e-016 0 3.18055e-015 1.4655 -1.808 0.9609 8.94531e-016 -1.98785e-016 6.36111e-015 4.9141 -1.269 0.3591 6.4605e-016 0 3.18055e-015 3.1477 -1.685 0.8462 5.96354e-016 0 3.18055e-015 0.8055 -1.585 0.7955 8.94531e-016 -1.98785e-016 6.36111e-015 -1.7069 20.075 5.0056 0 0 -0 -13.6458 -0.047 -4.849 -1.4496 0.0636048 -5.0245 -28.3255 -0.9759 2.2888 -1.74811 1.20616 -16.8394 -22.1583 -0.53 10.8316 -1.19271e-015 1.98785e-016 -3.18055e-015 -0.786 0.112 2.5817 -3.97569e-016 1.98785e-016 -3.18055e-015 -0.3601 -0.878 4.2331 -2.98177e-016 1.98785e-016 -3.18055e-015 -1.8127 -1.216 2.2227 -2.98177e-016 3.97569e-016 -0 -0.9571 1.114 1.7695 4.96962e-016 0 -6.36111e-015 -4.1246 0.487 4.1451 -9.93923e-017 3.97569e-016 -0 -3.4052 -1.454 2.7682 -8.94531e-016 5.96354e-016 -0 -1.4531 -1.795 1.2713 -3.97569e-016 3.97569e-016 -0 -5.6954 0.21 2.1184 -9.93923e-017 3.97569e-016 -0 -3.9766 -1.54 2.3863 -8.94531e-016 5.96354e-016 -0 -1.4042 -1.926 1.125 -3.97569e-016 3.97569e-016 -0 -2.0956 0.66 -0.3894 4.96962e-016 0 -6.36111e-015 -5.0395 -0.09 2.4971 -9.93923e-017 3.97569e-016 -0 -3.7921 -1.552 1.4806 -8.94531e-016 5.96354e-016 -0 -1.4655 -1.808 0.9609 -3.97569e-016 3.97569e-016 -0 -4.9141 -1.269 0.3592 -9.93923e-017 3.97569e-016 -0 -3.1477 -1.685 0.8462 -8.94531e-016 5.96354e-016 -0 -0.8055 -1.585 0.7955 -3.97569e-016 3.97569e-016 -0 8.367 -8.2066 0.5982 -4.66115 -1.03232 0.120763 2.1923 -43.463 -0.4932 0.00990601 1.55097 0.177175 0.7333 -45.8593 -2.6451 4.65196 -0.54114 -0.255042 -8.367 -8.2066 0.5982 4.66115 -1.03222 -0.120763 -2.1923 -43.463 -0.4931 -0.00990459 1.5509 -0.177176 -0.7333 -45.8593 -2.6451 -4.65196 -0.541171 0.255041 
31.2109 90.0325 4.26404 0 2.97923 -0 0 -1.186 -1.5018 -0.0285122 0.300513 -0.0918724 0 9.964 0.2134 -0.0565437 0.601016 -0.183599 -3.55271e-015 13.134 -3.2573 -0.0565437 0.601016 -0.183599 -3.55271e-015 20.686 -1.6905 -8.18732e-006 -0.558913 -2.25934e-005 3.55271e-015 7.238 -0.1237 -6.15454e-009 -0.195581 -8.04567e-008 1.7069 20.075 5.0056 -3.67102 0.083019 5.67452 13.6458 -0.047 -4.849 -40.0294 17.9413 11.2621 28.3255 -0.9759 2.2888 -22.6987 10.7184 -15.3986 22.1583 -0.53 10.8316 -4.8229 1.90502 -0.00784337 0.786 0.112 2.5817 -1.59028e-015 -9.54166e-015 -0 0.3601 -0.878 4.2331 1.76556e-031 -6.36111e-015 1.59028e-015 1.8127 -1.216 2.2227 7.95139e-016 0 4.77083e-015 0.9571 1.114 1.7695 -1.59028e-015 -3.18055e-015 -0 4.1246 0.487 4.1451 -4.77083e-015 -3.18055e-015 7.95139e-015 3.4052 -1.454 2.7682 1.59028e-015 -3.18055e-015 1.59028e-015 1.4531 -1.795 1.2713 1.59028e-015 -6.36111e-015 1.59028e-015 5.6954 0.21 2.1184 -4.77083e-015 -3.18055e-015 7.95139e-015 3.9766 -1.54 2.3863 1.59028e-015 -3.18055e-015 1.59028e-015 1.4042 -1.926 1.125 1.59028e-015 -6.36111e-015 1.59028e-015 2.0956 0.66 -0.3894 -1.59028e-015 -3.18055e-015 -0 5.0395 -0.09 2.4971 -4.77083e-015 -3.18055e-015 7.95139e-015 3.7921 -1.552 1.4806 1.59028e-015 -3.18055e-015 1.59028e-015 1.4655 -1.808 0.9609 1.59028e-015 -6.36111e-015 1.59028e-015 4.9141 -1.269 0.3591 -4.77083e-015 -3.18055e-015 7.95139e-015 3.1477 -1.685 0.8462 1.59028e-015 -3.18055e-015 1.59028e-015 0.8055 -1.585 0.7955 1.59028e-015 -6.36111e-015 1.59028e-015 -1.7069 20.075 5.0056 3.66842 0.0830722 -5.67715 -13.6458 -0.047 -4.849 40.2451 17.9002 -10.5976 -28.3255 -0.9759 2.2888 21.089 9.8839 14.623 -22.1583 -0.53 10.8316 4.8083 1.93239 0.0472168 -0.786 0.112 2.5817 7.95139e-015 0 -0 -0.3601 -0.878 4.2331 9.54166e-015 0 -3.18055e-015 -1.8127 -1.216 2.2227 1.19271e-015 9.54166e-015 -0 -0.9571 1.114 1.7695 3.97569e-015 0 1.59028e-015 -4.1246 0.487 4.1451 6.36111e-015 3.18055e-015 1.59028e-015 -3.4052 -1.454 2.7682 5.56597e-015 6.36111e-015 -3.18055e-015 -1.4531 -1.795 1.2713 4.37326e-015 0 3.18055e-015 -5.6954 0.21 2.1184 6.36111e-015 3.18055e-015 1.59028e-015 -3.9766 -1.54 2.3863 5.56597e-015 6.36111e-015 -3.18055e-015 -1.4042 -1.926 1.125 4.37326e-015 0 3.18055e-015 -2.0956 0.66 -0.3894 3.97569e-015 0 1.59028e-015 -5.0395 -0.09 2.4971 6.36111e-015 3.18055e-015 1.59028e-015 -3.7921 -1.552 1.4806 5.56597e-015 6.36111e-015 -3.18055e-015 -1.4655 -1.808 0.9609 4.37326e-015 0 3.18055e-015 -4.9141 -1.269 0.3592 6.36111e-015 3.18055e-015 1.59028e-015 -3.1477 -1.685 0.8462 5.56597e-015 6.36111e-015 -3.18055e-015 -0.8055 -1.585 0.7955 4.37326e-015 0 3.18055e-015 8.367 -8.2066 0.5982 1.16341 -7.63201 2.6868 2.1923 -43.463 -0.4932 -2.28615 10.1214 0.804896 0.7333 -45.8593 -2.6451 7.43348 -1.66099 -0.820686 -8.367 -8.2066 0.5982 0.367014 -7.06055 -4.59973 -2.1923 -43.463 -0.4931 4.38568 9.21803 -1.22835 -0.7333 -45.8593 -2.6451 -11.3446 -1.51554 2.59444 
45.2542 89.9617 5.11697 0 4.23843 -0 0 -1.186 -1.5018 -0.0466631 0.423513 -0.131957 7.10543e-015 9.964 0.2134 -0.0923546 0.847123 -0.263579 0 13.134 -3.2573 -0.0923545 0.847123 -0.26358 0 20.686 -1.6905 9.15584e-006 -0.524527 2.74038e-005 7.10543e-015 7.238 -0.1237 8.14513e-008 -0.283594 -2.21437e-007 1.7069 20.075 5.0056 -5.3283 0.119533 8.22811 13.6458 -0.047 -4.849 -60.0774 25.8324 14.2134 28.3255 -0.9759 2.2888 -30.5658 12.6264 -29.5378 22.1583 -0.53 10.8316 -6.99509 2.7611 0.0409706 0.786 0.112 2.5817 -2.78299e-015 3.18055e-015 -0 0.3601 -0.878 4.2331 6.36111e-015 -3.18055e-015 -0 1.8127 -1.216 2.2227 -1.92985e-007 9.55822e-007 1.38163e-006 0.9571 1.114 1.7695 -2.78299e-015 3.18055e-015 -0 4.1246 0.487 4.1451 4.77083e-015 -3.18055e-015 4.77083e-015 3.4052 -1.454 2.7682 -2.38542e-015 -3.18055e-015 -7.95139e-016 1.4531 -1.795 1.2713 -1.92985e-007 9.55822e-007 1.38163e-006 5.6954 0.21 2.1184 4.77083e-015 -3.18055e-015 4.77083e-015 3.9766 -1.54 2.3863 -2.38542e-015 -3.18055e-015 -7.95139e-016 1.4042 -1.926 1.125 -1.92985e-007 9.55822e-007 1.38163e-006 2.0956 0.66 -0.3894 -2.78299e-015 3.18055e-015 -0 5.0395 -0.09 2.4971 4.77083e-015 -3.18055e-015 4.77083e-015 3.7921 -1.552 1.4806 -2.38542e-015 -3.18055e-015 -7.95139e-016 1.4655 -1.808 0.9609 -1.92985e-007 9.55822e-007 1.38163e-006 4.9141 -1.269 0.3591 4.77083e-015 -3.18055e-015 4.77083e-015 3.1477 -1.685 0.8462 -2.38542e-015 -3.18055e-015 -7.95139e-016 0.8055 -1.585 0.7955 -1.92985e-007 9.55822e-007 1.38163e-006 -1.7069 20.075 5.0056 5.32458 0.119618 -8.23181 -13.6458 -0.047 -4.849 60.3019 25.7801 -13.582 -28.3255 -0.9759 2.2888 29.1444 11.3516 28.8095 -22.1583 -0.53 10.8316 6.97355 2.80185 0.0155041 -0.786 0.112 2.5817 -3.37934e-015 -6.36111e-015 2.38542e-015 -0.3601 -0.878 4.2331 2.98177e-015 -9.54166e-015 -0 -1.8127 -1.216 2.2227 -7.95139e-016 -3.18055e-015 -7.95139e-016 -0.9571 1.114 1.7695 -3.18055e-015 0 1.59028e-015 -4.1246 0.487 4.1451 -8.54774e-015 6.36111e-015 4.77083e-015 -3.4052 -1.454 2.7682 5.96354e-016 -9.54166e-015 3.97569e-015 -1.4531 -1.795 1.2713 3.97569e-016 -6.36111e-015 7.95139e-016 -5.6954 0.21 2.1184 -8.54774e-015 6.36111e-015 4.77083e-015 -3.9766 -1.54 2.3863 5.96354e-016 -9.54166e-015 3.97569e-015 -1.4042 -1.926 1.125 3.97569e-016 -6.36111e-015 7.95139e-016 -2.0956 0.66 -0.3894 -3.18055e-015 0 1.59028e-015 -5.0395 -0.09 2.4971 -8.54774e-015 6.36111e-015 4.77083e-015 -3.7921 -1.552 1.4806 5.96354e-016 -9.54166e-015 3.97569e-015 -1.4655 -1.808 0.9609 3.97569e-016 -6.36111e-015 7.95139e-016 -4.9141 -1.269 0.3592 -8.54774e-015 6.36111e-015 4.77083e-015 -3.1477 -1.685 0.8462 5.96354e-016 -9.54166e-015 3.97569e-015 -0.8055 -1.585 0.7955 3.97569e-016 -6.36111e-015 7.95139e-016 8.367 -8.2066 0.5982 3.97623 -10.4937 3.89641 2.1923 -43.463 -0.4932 -3.35349 14.0959 1.09205 0.7333 -45.8593 -2.6451 8.66847 -2.22629 -1.08292 -8.367 -8.2066 0.5982 -1.8529 -9.69969 -6.71147 -2.1923 -43.463 -0.4931 6.39745 12.9234 -1.67568 -0.7333 -45.8593 -2.6451 -14.2751 -2.08435 3.6773 
42.1337 89.986 5.04381 0 3.77758 -0 0 -1.186 -1.5018 -0.0422074 0.368981 -0.123223 -7.10543e-015 9.964 0.2134 -0.0836237 0.738088 -0.246181 0 13.134 -3.2573 -0.0836237 0.738088 -0.246181 0 20.686 -1.6905 -2.15399e-005 0.10423 -6.55248e-005 -7.10543e-015 7.238 -0.1237 3.1685e-008 -0.264035 -5.53897e-008 1.7069 20.075 5.0056 -4.95976 0.111723 7.66059 13.6458 -0.047 -4.849 -55.542 24.0918 13.5148 28.3255 -0.9759 2.2888 -28.8938 12.3842 -26.4019 22.1583 -0.53 10.8316 -6.51219 2.57103 0.0273139 0.786 0.112 2.5817 1.7153e-007 -1.04431e-006 -1.31312e-006 0.3601 -0.878 4.2331 1.59028e-015 0 -7.95139e-016 1.8127 -1.216 2.2227 -3.97569e-015 -6.36111e-015 -1.59028e-015 0.9571 1.114 1.7695 -3.18055e-015 0 -1.59028e-015 4.1246 0.487 4.1451 1.7153e-007 -1.04431e-006 -1.31312e-006 3.4052 -1.454 2.7682 -7.95139e-016 0 -7.95139e-016 1.4531 -1.795 1.2713 1.19271e-015 -6.36111e-015 -7.95139e-016 5.6954 0.21 2.1184 1.7153e-007 -1.04431e-006 -1.31312e-006 3.9766 -1.54 2.3863 -7.95139e-016 0 -7.95139e-016 1.4042 -1.926 1.125 1.19271e-015 -6.36111e-015 -7.95139e-016 2.0956 0.66 -0.3894 -3.18055e-015 0 -1.59028e-015 5.0395 -0.09 2.4971 1.7153e-007 -1.04431e-006 -1.31312e-006 3.7921 -1.552 1.4806 -7.95139e-016 0 -7.95139e-016 1.4655 -1.808 0.9609 1.19271e-015 -6.36111e-015 -7.95139e-016 4.9141 -1.269 0.3591 1.7153e-007 -1.04431e-006 -1.31312e-006 3.1477 -1.685 0.8462 -7.95139e-016 0 -7.95139e-016 0.8055 -1.585 0.7955 1.19271e-015 -6.36111e-015 -7.95139e-016 -1.7069 20.075 5.0056 4.95623 0.111786 -7.66421 -13.6458 -0.047 -4.849 55.7642 24.0421 -12.8759 -28.3255 -0.9759 2.2888 27.4247 11.2015 25.6688 -22.1583 -0.53 10.8316 6.49222 2.60875 0.0253972 -0.786 0.112 2.5817 -1.43125e-014 0 -6.36111e-015 -0.3601 -0.878 4.2331 -1.55052e-014 -3.18055e-015 -4.77083e-015 -1.8127 -1.216 2.2227 -1.47101e-014 -3.18055e-015 -4.77083e-015 -0.9571 1.114 1.7695 8.82781e-032 3.18055e-015 -1.59028e-015 -4.1246 0.487 4.1451 -1.82882e-014 0 -0 -3.4052 -1.454 2.7682 -1.23246e-014 3.18055e-015 -4.77083e-015 -1.4531 -1.795 1.2713 -1.39149e-014 0 -6.36111e-015 -5.6954 0.21 2.1184 -1.82882e-014 0 -0 -3.9766 -1.54 2.3863 -1.23246e-014 3.18055e-015 -4.77083e-015 -1.4042 -1.926 1.125 -1.39149e-014 0 -6.36111e-015 -2.0956 0.66 -0.3894 8.82781e-032 3.18055e-015 -1.59028e-015 -5.0395 -0.09 2.4971 -1.82882e-014 0 -0 -3.7921 -1.552 1.4806 -1.23246e-014 3.18055e-015 -4.77083e-015 -1.4655 -1.808 0.9609 -1.39149e-014 0 -6.36111e-015 -4.9141 -1.269 0.3592 -1.82882e-014 0 -0 -3.1477 -1.685 0.8462 -1.23246e-014 3.18055e-015 -4.77083e-015 -0.8055 -1.585 0.7955 -1.39149e-014 0 -6.36111e-015 8.367 -8.2066 0.5982 3.35102 -9.536 3.69129 2.1923 -43.463 -0.4932 -3.11454 13.2062 1.02766 0.7333 -45.8593 -2.6451 8.39533 -2.09518 -1.02447 -8.367 -8.2066 0.5982 -1.37377 -8.79074 -6.3817 -2.1923 -43.463 -0.4931 5.96035 12.0832 -1.5787 -0.7333 -45.8593 -2.6451 -13.6347 -1.94614 3.43629 
